<svg width="28" height="28" viewBox="0 0 28 28" fill="none" xmlns="http://www.w3.org/2000/svg">
<path d="M0 6C0 2.68629 2.68629 0 6 0H28V28H6C2.68629 28 0 25.3137 0 22V6Z" fill="#7D86EC"/>
<path fill-rule="evenodd" clip-rule="evenodd" d="M15.7803 9.46967C16.0732 9.76256 16.0732 10.2374 15.7803 10.5303L12.3107 14L15.7803 17.4697C16.0732 17.7626 16.0732 18.2374 15.7803 18.5303C15.4874 18.8232 15.0126 18.8232 14.7197 18.5303L10.7197 14.5303C10.4268 14.2374 10.4268 13.7626 10.7197 13.4697L14.7197 9.46967C15.0126 9.17678 15.4874 9.17678 15.7803 9.46967Z" fill="#FBFBFB"/>
</svg>
