<svg width="28" height="28" viewBox="0 0 28 28" fill="none" xmlns="http://www.w3.org/2000/svg">
<path d="M0 0H22C25.3137 0 28 2.68629 28 6V22C28 25.3137 25.3137 28 22 28H0V0Z" fill="#B7BDFC"/>
<path fill-rule="evenodd" clip-rule="evenodd" d="M11.7197 18.5303C11.4268 18.2374 11.4268 17.7626 11.7197 17.4697L15.1893 14L11.7197 10.5303C11.4268 10.2374 11.4268 9.76256 11.7197 9.46967C12.0126 9.17678 12.4874 9.17678 12.7803 9.46967L16.7803 13.4697C17.0732 13.7626 17.0732 14.2374 16.7803 14.5303L12.7803 18.5303C12.4874 18.8232 12.0126 18.8232 11.7197 18.5303Z" fill="#FBFBFB"/>
</svg>
